<svg width="1920" height="1080" viewBox="0 0 1920 1080" fill="none" xmlns="http://www.w3.org/2000/svg">
<g clip-path="url(#clip0)">
<rect width="1920" height="1080" fill="#110F0F"/>
<path d="M1755.49 485.991L1455.64 670.603L1432.87 344.907L1755.49 485.991Z" fill="url(#paint0_linear)"/>
<path d="M1546.68 488.109C1551.08 487.84 1554.91 488.542 1558.17 490.213C1561.42 491.885 1563.95 494.17 1565.74 497.068C1567.57 499.963 1568.6 503.089 1568.84 506.444C1569.07 509.762 1568.52 512.94 1567.18 515.979C1565.88 519.016 1563.79 521.604 1560.92 523.743C1558.04 525.843 1554.47 527.14 1550.2 527.632C1549.97 527.648 1549.85 527.54 1549.83 527.309C1549.85 524.323 1549.72 520.67 1549.41 516.349C1548.8 507.594 1547.78 498.304 1546.36 488.481C1546.34 488.249 1546.45 488.125 1546.68 488.109ZM1552.06 525.118C1555.46 524.454 1558.3 523.209 1560.58 521.383C1562.85 519.518 1564.5 517.31 1565.52 514.758C1566.59 512.203 1567.02 509.556 1566.83 506.817C1566.63 504.002 1565.79 501.367 1564.3 498.913C1562.85 496.417 1560.81 494.409 1558.18 492.887C1555.55 491.365 1552.46 490.574 1548.89 490.513C1550.14 499.535 1551.06 508.366 1551.67 517.006C1551.88 520.092 1552.02 522.796 1552.06 525.118Z" fill="white"/>
<path d="M191.875 550.514L486.958 359.84L517.919 681.38L191.875 550.514Z" fill="url(#paint1_linear)"/>
<path d="M416.091 501.12C412.304 501.329 409.449 501.526 407.524 501.712C406.293 501.83 404.449 502.047 401.993 502.361C402.806 508.381 403.51 514.49 404.107 520.686L404.468 524.439C407.87 524.267 410.455 524.076 412.221 523.867L411.965 526.048L410.002 526.237C408.809 526.352 407.016 526.486 404.622 526.638C404.973 530.684 405.28 535.49 405.544 541.058L403.35 541.27C403.094 535.778 402.782 530.933 402.417 526.734L400.963 526.758L400.809 524.558L402.206 524.54C402.111 523.151 401.93 521.071 401.663 518.3C401.096 512.411 400.402 506.418 399.582 500.32C400.81 500.163 402.675 499.964 405.177 499.723C409.334 499.323 413.094 499.039 416.457 498.87L416.091 501.12Z" fill="white"/>
<path d="M110.502 729.344L487.676 876.437L393.275 1019.06L110.502 729.344Z" fill="url(#paint2_linear)"/>
<path d="M351.213 863.022C348.819 884.89 347.072 898.144 345.974 902.784C345.916 902.969 345.794 903.032 345.61 902.974L344.026 902.596C343.842 902.538 343.779 902.417 343.837 902.232C344.145 900.87 344.464 899.085 344.795 896.879C343.569 896.654 342.015 896.245 340.134 895.652C337.553 894.838 335.086 893.919 332.733 892.893C331.461 894.357 330.097 895.853 328.643 897.381C328.582 897.443 328.51 897.481 328.424 897.494C328.339 897.508 328.265 897.485 328.203 897.425L327.064 896.214C326.952 896.057 326.95 895.935 327.058 895.847C328.404 894.407 329.588 893.097 330.608 891.919L329.979 891.599L330.974 889.602L332.083 890.134C335.489 886.018 338.663 881.546 341.604 876.716C344.558 871.85 347.048 867.101 349.076 862.469L351.213 863.022ZM334.208 891.108C336.708 892.18 338.825 892.989 340.558 893.536C342.144 894.036 343.667 894.415 345.126 894.672C345.971 888.776 347.002 880.364 348.218 869.436C344.439 876.92 339.769 884.145 334.208 891.108Z" fill="white"/>
<path d="M280.503 602.969L140.981 769.278L146.87 431.892L280.503 602.969Z" fill="url(#paint3_linear)"/>
<path d="M189.218 580.411C189.402 580.351 189.524 580.413 189.584 580.597L190.086 582.142C190.145 582.326 190.083 582.447 189.9 582.507C186.614 583.656 183.972 585.287 181.975 587.399C180.015 589.5 178.768 591.979 178.232 594.836C177.722 597.645 177.98 600.63 179.008 603.793C179.307 604.712 179.673 605.65 180.105 606.607C181.38 609.405 183.167 611.65 185.465 613.343C187.788 614.987 190.434 615.997 193.402 616.374C196.371 616.751 199.473 616.414 202.709 615.363C203.004 615.267 203.181 615.311 203.24 615.495L203.742 617.04C203.802 617.224 203.703 617.357 203.446 617.441C199.842 618.612 196.366 618.989 193.019 618.572C189.708 618.144 186.752 616.99 184.149 615.112C181.535 613.197 179.512 610.662 178.081 607.509C177.624 606.478 177.24 605.485 176.93 604.529C175.771 600.962 175.485 597.579 176.071 594.379C176.695 591.168 178.122 588.367 180.354 585.975C182.61 583.534 185.565 581.679 189.218 580.411Z" fill="white"/>
<path d="M260.043 766.941L468.969 631.999L508.731 770.665L260.043 766.941Z" fill="url(#paint4_linear)"/>
<path d="M437.977 696.49C442.081 718.102 444.286 731.288 444.592 736.047C444.59 736.24 444.493 736.336 444.3 736.334L442.675 736.436C442.481 736.434 442.385 736.337 442.387 736.144C442.283 734.751 442.067 732.951 441.738 730.744C440.5 730.888 438.894 730.951 436.922 730.934C434.216 730.91 431.588 730.752 429.038 730.459C428.249 732.231 427.383 734.06 426.438 735.946C426.399 736.023 426.34 736.081 426.263 736.119C426.185 736.157 426.108 736.156 426.031 736.117L424.588 735.292C424.434 735.175 424.397 735.059 424.475 734.943C425.341 733.172 426.09 731.574 426.721 730.149L426.026 730.027L426.393 727.826L427.61 728.01C429.663 723.079 431.391 717.874 432.792 712.395C434.194 706.878 435.187 701.608 435.772 696.586L437.977 696.49ZM429.927 728.321C432.631 728.615 434.892 728.77 436.709 728.786C438.372 728.8 439.938 728.717 441.409 728.537C440.494 722.651 439.02 714.305 436.988 703.499C435.562 711.762 433.209 720.036 429.927 728.321Z" fill="white"/>
<path d="M450.573 410.899L157.353 263.502L339.577 134.413L450.573 410.899Z" fill="url(#paint5_linear)"/>
<path d="M330.355 251.047C330.542 250.999 330.66 251.069 330.709 251.256L331.119 252.827C331.168 253.014 331.098 253.132 330.911 253.18C327.559 254.117 324.822 255.575 322.701 257.554C320.618 259.523 319.224 261.915 318.519 264.729C317.842 267.497 317.924 270.489 318.763 273.707C319.007 274.642 319.317 275.601 319.693 276.582C320.801 279.452 322.453 281.803 324.649 283.636C326.874 285.422 329.458 286.597 332.402 287.161C335.346 287.725 338.467 287.586 341.764 286.743C342.063 286.666 342.237 286.722 342.286 286.909L342.696 288.48C342.745 288.667 342.638 288.794 342.376 288.861C338.705 289.8 335.209 289.956 331.888 289.328C328.605 288.691 325.719 287.353 323.23 285.316C320.73 283.241 318.859 280.587 317.616 277.353C317.22 276.296 316.896 275.282 316.642 274.309C315.696 270.68 315.61 267.289 316.387 264.137C317.2 260.976 318.793 258.274 321.165 256.031C323.565 253.741 326.628 252.08 330.355 251.047Z" fill="white"/>
<path d="M40.9815 183.238L287.534 84.5998L194.036 400.246L40.9815 183.238Z" fill="url(#paint6_linear)"/>
<path d="M186.385 237.816C186.454 237.929 186.46 238.022 186.403 238.093C186.336 238.128 186.264 238.143 186.186 238.14C181.523 238.132 177.936 238.077 175.425 237.973C172.953 237.871 169.277 237.627 164.397 237.242C163.194 231.803 162.087 227.144 161.075 223.263L159.596 223.092L159.079 220.966L160.558 221.138L159.589 217.555C158.015 211.732 156.228 205.55 154.23 199.008C155.456 199.022 157.286 199.079 159.72 199.179C163.816 199.348 167.506 199.574 170.792 199.857C170.907 199.862 171 199.921 171.069 200.034C171.166 200.112 171.206 200.188 171.187 200.261L171.19 201.756C171.211 201.83 171.187 201.885 171.12 201.919C171.091 201.955 171.038 201.971 170.961 201.968C167.212 201.666 164.391 201.475 162.498 201.397C161.3 201.348 159.475 201.31 157.023 201.282C158.688 206.592 160.156 211.599 161.428 216.302C162.034 218.541 162.468 220.22 162.733 221.339C164.617 221.527 166.487 221.659 168.341 221.736L170.196 221.812C170.312 221.817 170.423 221.877 170.531 221.992C170.628 222.07 170.668 222.145 170.649 222.219L170.695 223.66C170.736 223.809 170.659 223.88 170.466 223.872L168.554 223.793C167.395 223.745 165.646 223.636 163.308 223.466C164.526 228.536 165.431 232.449 166.024 235.205C169.58 235.499 172.864 235.708 175.878 235.832C178.93 235.958 182.078 236.014 185.321 236C185.514 236.008 185.631 236.087 185.672 236.236L186.385 237.816Z" fill="white"/>
<path d="M860.981 529.6C861.114 529.6 861.181 529.667 861.181 529.8V530.92C861.181 530.973 861.154 531.027 861.101 531.08C861.074 531.107 861.021 531.12 860.941 531.12C859.101 531.2 856.688 531.24 853.701 531.24C853.808 534.147 853.861 537.653 853.861 541.76C853.861 547.04 853.754 552.053 853.541 556.8C853.541 556.853 853.514 556.907 853.461 556.96C853.434 556.987 853.394 557 853.341 557H852.221C852.088 557 852.021 556.933 852.021 556.8C852.234 551.973 852.341 546.933 852.341 541.68C852.341 537.6 852.288 534.12 852.181 531.24C849.408 531.24 847.301 531.2 845.861 531.12C845.728 531.12 845.661 531.053 845.661 530.92L845.741 529.8C845.741 529.667 845.808 529.6 845.941 529.6C847.568 529.68 849.994 529.72 853.221 529.72C856.448 529.72 859.034 529.68 860.981 529.6ZM870.991 537.48C872.617 537.48 874.057 537.907 875.311 538.76C876.564 539.613 877.537 540.813 878.231 542.36C878.924 543.88 879.271 545.653 879.271 547.68C879.271 549.52 878.924 551.147 878.231 552.56C877.537 553.947 876.564 555.027 875.311 555.8C874.057 556.547 872.617 556.92 870.991 556.92C869.444 556.92 868.084 556.547 866.911 555.8C865.737 555.027 864.817 553.947 864.151 552.56C863.511 551.147 863.191 549.52 863.191 547.68C863.191 545.653 863.511 543.88 864.151 542.36C864.817 540.813 865.737 539.613 866.911 538.76C868.084 537.907 869.444 537.48 870.991 537.48ZM870.991 539C869.737 539 868.631 539.36 867.671 540.08C866.737 540.8 866.004 541.827 865.471 543.16C864.964 544.467 864.711 545.973 864.711 547.68C864.711 550 865.284 551.867 866.431 553.28C867.577 554.693 869.097 555.4 870.991 555.4C873.017 555.4 874.644 554.693 875.871 553.28C877.124 551.867 877.751 550 877.751 547.68C877.751 545.973 877.471 544.467 876.911 543.16C876.351 541.827 875.551 540.8 874.511 540.08C873.497 539.36 872.324 539 870.991 539ZM904.046 536.92C906.046 536.92 907.766 537.573 909.206 538.88C910.673 540.187 911.793 542.053 912.566 544.48C913.339 546.88 913.726 549.693 913.726 552.92C913.726 554.067 913.659 555.467 913.526 557.12C913.499 557.227 913.419 557.28 913.286 557.28L912.166 557.16C912.006 557.16 911.953 557.093 912.006 556.96C912.139 555.76 912.206 554.373 912.206 552.8C912.206 549.893 911.873 547.36 911.206 545.2C910.566 543.04 909.633 541.373 908.406 540.2C907.179 539.027 905.726 538.44 904.046 538.44C902.899 538.44 901.766 538.92 900.646 539.88C899.553 540.84 898.659 542.12 897.966 543.72C898.473 545.48 898.726 547.8 898.726 550.68C898.726 552.733 898.633 554.773 898.446 556.8C898.419 556.853 898.379 556.907 898.326 556.96C898.273 557.013 898.219 557.027 898.166 557L897.086 556.8C897.033 556.8 896.993 556.773 896.966 556.72C896.939 556.667 896.926 556.613 896.926 556.56C897.139 554.16 897.246 552.093 897.246 550.36C897.246 548.28 897.086 546.44 896.766 544.84C896.313 542.733 895.473 541.147 894.246 540.08C893.046 539.013 891.366 538.48 889.206 538.48C887.259 538.48 885.673 539.24 884.446 540.76C883.246 542.253 882.579 544.267 882.446 546.8V550.92C882.446 554.76 882.433 556.787 882.406 557H880.886C880.939 556.253 880.966 552.947 880.966 547.08C880.966 541.133 880.939 537.92 880.886 537.44H882.406C882.433 537.573 882.446 538.787 882.446 541.08C883.166 539.773 884.099 538.76 885.246 538.04C886.419 537.32 887.739 536.96 889.206 536.96C893.099 536.96 895.779 538.52 897.246 541.64C898.046 540.2 899.046 539.053 900.246 538.2C901.473 537.347 902.739 536.92 904.046 536.92Z" fill="white"/>
<path d="M1006.43 555C1006.3 555 1006.23 554.933 1006.23 554.8V553.68C1006.23 553.627 1006.25 553.587 1006.27 553.56C1006.33 553.507 1006.38 553.48 1006.43 553.48C1007.9 553.427 1009.18 552.8 1010.27 551.6C1011.39 550.4 1012.26 548.733 1012.87 546.6C1013.49 544.44 1013.79 541.96 1013.79 539.16C1013.79 537.293 1013.74 535.347 1013.63 533.32C1013.53 531.293 1013.38 529.547 1013.19 528.08C1013.17 528.027 1013.17 527.973 1013.19 527.92C1013.25 527.867 1013.3 527.84 1013.35 527.84L1014.47 527.72C1014.58 527.72 1014.66 527.787 1014.71 527.92C1014.9 529.413 1015.05 531.187 1015.15 533.24C1015.26 535.267 1015.31 537.24 1015.31 539.16C1015.31 542.253 1014.94 544.987 1014.19 547.36C1013.47 549.733 1012.43 551.587 1011.07 552.92C1009.74 554.253 1008.19 554.947 1006.43 555ZM1028.02 554.8C1026.98 554.96 1026.02 555.04 1025.14 555.04C1024.28 555.04 1023.39 554.947 1022.46 554.76C1023.58 555.613 1024.75 556.4 1025.98 557.12C1027.2 557.84 1028.2 558.347 1028.98 558.64L1028.54 559.92C1027.71 559.68 1026.55 559.107 1025.06 558.2C1023.59 557.32 1022.16 556.293 1020.78 555.12C1019.39 553.973 1018.35 552.907 1017.66 551.92C1016.75 550.72 1016.3 549.2 1016.3 547.36C1016.3 545.493 1016.78 543.64 1017.74 541.8C1018.72 539.933 1020.07 538.4 1021.78 537.2C1023.51 536 1025.42 535.4 1027.5 535.4C1028.94 535.4 1030.28 535.853 1031.54 536.76C1032.79 537.667 1033.78 538.893 1034.5 540.44C1035.24 541.987 1035.62 543.667 1035.62 545.48C1035.62 547.027 1035.31 548.467 1034.7 549.8C1034.11 551.107 1033.24 552.213 1032.1 553.12C1030.95 554 1029.59 554.56 1028.02 554.8ZM1027.62 536.88C1025.8 536.88 1024.14 537.4 1022.62 538.44C1021.12 539.453 1019.94 540.76 1019.06 542.36C1018.2 543.933 1017.78 545.507 1017.78 547.08C1017.78 548.947 1018.4 550.48 1019.66 551.68C1020.91 552.853 1022.8 553.44 1025.34 553.44C1026.03 553.44 1026.88 553.373 1027.9 553.24C1029.07 553.08 1030.14 552.627 1031.1 551.88C1032.06 551.107 1032.82 550.16 1033.38 549.04C1033.94 547.893 1034.22 546.693 1034.22 545.44C1034.22 543.92 1033.91 542.507 1033.3 541.2C1032.68 539.867 1031.87 538.813 1030.86 538.04C1029.84 537.267 1028.76 536.88 1027.62 536.88ZM1045.33 534.96C1048.83 534.96 1051.28 536.147 1052.69 538.52C1054.13 540.867 1054.85 544.28 1054.85 548.76C1054.85 550.813 1054.76 552.827 1054.57 554.8C1054.55 554.853 1054.51 554.907 1054.45 554.96C1054.4 555.013 1054.35 555.027 1054.29 555L1053.21 554.8C1053.16 554.8 1053.12 554.773 1053.09 554.72C1053.07 554.667 1053.05 554.613 1053.05 554.56C1053.27 552.133 1053.37 550.04 1053.37 548.28C1053.37 544.36 1052.76 541.413 1051.53 539.44C1050.33 537.467 1048.27 536.48 1045.33 536.48C1043.39 536.48 1041.8 537.24 1040.57 538.76C1039.37 540.253 1038.71 542.267 1038.57 544.8V548.92C1038.57 552.76 1038.56 554.787 1038.53 555H1037.01C1037.07 554.253 1037.09 550.947 1037.09 545.08C1037.09 539.133 1037.07 535.92 1037.01 535.44H1038.53C1038.56 535.573 1038.57 536.787 1038.57 539.08C1039.29 537.773 1040.23 536.76 1041.37 536.04C1042.55 535.32 1043.87 534.96 1045.33 534.96ZM1064.79 534.96C1068.28 534.96 1070.73 536.147 1072.15 538.52C1073.59 540.867 1074.31 544.28 1074.31 548.76C1074.31 550.813 1074.21 552.827 1074.03 554.8C1074 554.853 1073.96 554.907 1073.91 554.96C1073.85 555.013 1073.8 555.027 1073.75 555L1072.67 554.8C1072.61 554.8 1072.57 554.773 1072.55 554.72C1072.52 554.667 1072.51 554.613 1072.51 554.56C1072.72 552.133 1072.83 550.04 1072.83 548.28C1072.83 544.36 1072.21 541.413 1070.99 539.44C1069.79 537.467 1067.72 536.48 1064.79 536.48C1062.84 536.48 1061.25 537.24 1060.03 538.76C1058.83 540.253 1058.16 542.267 1058.03 544.8V548.92C1058.03 552.76 1058.01 554.787 1057.99 555H1056.47C1056.52 554.253 1056.55 550.947 1056.55 545.08C1056.55 539.133 1056.52 535.92 1056.47 535.44H1057.99C1058.01 535.573 1058.03 536.787 1058.03 539.08C1058.75 537.773 1059.68 536.76 1060.83 536.04C1062 535.32 1063.32 534.96 1064.79 534.96ZM1095.72 535.44C1095.77 535.973 1095.8 539.213 1095.8 545.16C1095.8 551.08 1095.77 554.36 1095.72 555H1094.2C1094.23 554.813 1094.24 553.6 1094.24 551.36C1093.57 552.507 1092.59 553.413 1091.28 554.08C1089.97 554.72 1088.35 555.04 1086.4 555.04C1085.52 555.04 1084.56 554.96 1083.52 554.8C1081.95 554.56 1080.59 554 1079.44 553.12C1078.29 552.213 1077.41 551.107 1076.8 549.8C1076.21 548.467 1075.92 547.027 1075.92 545.48C1075.92 543.667 1076.28 541.987 1077 540.44C1077.75 538.893 1078.75 537.667 1080 536.76C1081.25 535.853 1082.6 535.4 1084.04 535.4C1086.31 535.4 1088.35 536.107 1090.16 537.52C1092 538.907 1093.36 540.653 1094.24 542.76C1094.24 538.093 1094.23 535.653 1094.2 535.44H1095.72ZM1083.64 553.24C1084.65 553.373 1085.51 553.44 1086.2 553.44C1088.73 553.44 1090.63 552.84 1091.88 551.64C1093.13 550.44 1093.76 548.92 1093.76 547.08C1093.76 545.507 1093.32 543.933 1092.44 542.36C1091.59 540.76 1090.4 539.453 1088.88 538.44C1087.39 537.4 1085.73 536.88 1083.92 536.88C1082.77 536.88 1081.69 537.267 1080.68 538.04C1079.67 538.813 1078.85 539.867 1078.24 541.2C1077.63 542.507 1077.32 543.92 1077.32 545.44C1077.32 546.693 1077.6 547.893 1078.16 549.04C1078.72 550.16 1079.48 551.107 1080.44 551.88C1081.4 552.627 1082.47 553.08 1083.64 553.24Z" fill="white"/>
<path d="M1826.88 207.581L1563.85 396.076L1504.23 232.256L1826.88 207.581Z" fill="url(#paint7_linear)"/>
<path d="M1635.87 248.938C1632.25 250.089 1629.54 250.995 1627.72 251.656C1626.56 252.079 1624.83 252.75 1622.53 253.67C1624.82 259.295 1627.04 265.032 1629.17 270.882L1630.45 274.425C1633.7 273.406 1636.16 272.575 1637.82 271.93L1638.12 274.105L1636.26 274.78C1635.14 275.19 1633.43 275.768 1631.15 276.516C1632.51 280.344 1634.01 284.921 1635.66 290.245L1633.59 290.999C1631.96 285.747 1630.45 281.134 1629.04 277.161L1627.64 277.547L1626.94 275.457L1628.29 275.089C1627.85 273.768 1627.15 271.8 1626.2 269.183C1624.18 263.624 1622.01 257.996 1619.69 252.298C1620.83 251.838 1622.59 251.179 1624.95 250.319C1628.88 248.891 1632.45 247.674 1635.66 246.669L1635.87 248.938Z" fill="white"/>
<path d="M1770.86 827.385L1500.58 712.139L1719.06 527.476L1770.86 827.385Z" fill="url(#paint8_linear)"/>
<path d="M1674.58 668.051C1671.67 689.971 1669.62 703.243 1668.42 707.868C1668.35 708.051 1668.23 708.109 1668.05 708.042L1666.49 707.589C1666.31 707.522 1666.25 707.397 1666.31 707.213C1666.65 705.855 1667.01 704.072 1667.39 701.864C1666.18 701.582 1664.65 701.099 1662.8 700.415C1660.26 699.476 1657.84 698.437 1655.53 697.296C1654.24 698.712 1652.85 700.156 1651.37 701.629C1651.31 701.689 1651.23 701.723 1651.15 701.733C1651.06 701.743 1650.99 701.716 1650.93 701.653L1649.83 700.381C1649.72 700.218 1649.73 700.094 1649.84 700.011C1651.2 698.622 1652.41 697.357 1653.45 696.217L1652.83 695.866L1653.87 693.899L1654.95 694.486C1658.43 690.496 1661.69 686.136 1664.72 681.406C1667.77 676.639 1670.35 671.969 1672.47 667.397L1674.58 668.051ZM1657.04 695.565C1659.49 696.76 1661.57 697.672 1663.27 698.302C1664.83 698.879 1666.33 699.33 1667.77 699.656C1668.75 693.755 1669.98 685.328 1671.45 674.375C1667.52 681.742 1662.72 688.805 1657.04 695.565Z" fill="white"/>
<path d="M960 945L782.465 641.25H1137.54L960 945Z" fill="url(#paint9_linear)"/>
<path d="M971.05 790.594C971.088 790.71 971.069 790.807 970.992 790.884C970.914 790.923 970.837 790.942 970.76 790.942C966.042 791.135 962.427 791.232 959.914 791.232C957.439 791.232 953.785 791.135 948.952 790.942C949.222 785.297 949.377 780.463 949.416 776.442L947.966 776.326L948.024 774.122L949.474 774.238V770.526C949.474 764.494 949.358 758.095 949.126 751.328C950.363 751.289 952.2 751.27 954.636 751.27C958.734 751.27 962.408 751.347 965.656 751.502C965.772 751.502 965.849 751.56 965.888 751.676C965.965 751.753 965.984 751.831 965.946 751.908L965.54 753.474C965.54 753.551 965.501 753.609 965.424 753.648C965.385 753.687 965.327 753.706 965.25 753.706C961.538 753.551 958.734 753.474 956.84 753.474C955.641 753.474 953.804 753.513 951.33 753.59C951.562 759.081 951.678 764.262 951.678 769.134C951.678 771.454 951.658 773.194 951.62 774.354C953.476 774.47 955.332 774.528 957.188 774.528H959.044C959.16 774.528 959.256 774.586 959.334 774.702C959.411 774.779 959.43 774.857 959.392 774.934L959.044 776.442C959.044 776.597 958.947 776.674 958.754 776.674H956.84C955.68 776.674 953.94 776.635 951.62 776.558C951.465 781.817 951.31 785.877 951.156 788.738C954.674 788.893 957.942 788.97 960.958 788.97C964.012 788.97 967.183 788.893 970.47 788.738C970.663 788.738 970.76 788.815 970.76 788.97L971.05 790.594Z" fill="white"/>
<path d="M1321.18 821.579L1071.79 717.245L1355.53 553.429L1321.18 821.579Z" fill="url(#paint10_linear)"/>
<path d="M1241.87 698.101C1245.71 695.93 1249.46 694.882 1253.12 694.957C1256.78 695.032 1260.05 695.979 1262.93 697.798C1265.84 699.598 1268.14 701.955 1269.82 704.868C1271.49 707.748 1272.38 710.847 1272.51 714.165C1272.68 717.464 1271.93 720.705 1270.29 723.887C1268.63 727.036 1265.98 729.767 1262.36 732.081C1262.16 732.197 1262 732.154 1261.89 731.953C1260.6 729.259 1258.87 726.036 1256.71 722.286C1252.32 714.685 1247.33 706.781 1241.75 698.576C1241.63 698.375 1241.67 698.217 1241.87 698.101ZM1262.93 729.006C1265.7 726.917 1267.71 724.553 1268.95 721.915C1270.18 719.243 1270.69 716.536 1270.49 713.793C1270.32 711.031 1269.55 708.462 1268.18 706.084C1266.77 703.64 1264.86 701.641 1262.44 700.088C1260.04 698.483 1257.33 697.571 1254.3 697.355C1251.27 697.138 1248.14 697.785 1244.91 699.296C1249.99 706.856 1254.69 714.386 1259.02 721.887C1260.57 724.566 1261.87 726.939 1262.93 729.006Z" fill="white"/>
<path d="M677.17 917.705L662.516 654.477L829.086 702.24L677.17 917.705Z" fill="url(#paint11_linear)"/>
<path d="M734.061 780.792C734.008 780.978 733.888 781.045 733.702 780.991C732.736 780.714 732.006 780.525 731.512 780.424C731.443 780.806 731.301 781.369 731.088 782.112C730.129 785.457 728.419 787.843 725.959 789.27C723.498 790.696 720.632 790.94 717.362 790.002C713.868 789 711.118 787.367 709.113 785.103C707.118 782.801 705.88 780.173 705.399 777.22C704.919 774.266 705.116 771.266 705.99 768.218C706.981 764.761 708.715 761.658 711.193 758.909C713.681 756.123 716.724 754.14 720.321 752.959C723.955 751.789 727.859 751.782 732.032 752.938C732.218 752.992 732.284 753.111 732.231 753.297L731.783 754.858C731.73 755.044 731.61 755.11 731.425 755.057C727.66 754.018 724.154 754.038 720.908 755.119C717.71 756.172 714.994 757.928 712.761 760.385C710.565 762.853 709.02 765.647 708.124 768.77C707.357 771.446 707.163 774.085 707.543 776.688C707.971 779.265 709.042 781.563 710.755 783.583C712.517 785.576 714.921 787.01 717.969 787.884C720.608 788.64 722.919 788.438 724.901 787.277C726.894 786.078 728.285 784.104 729.073 781.353C729.254 780.722 729.374 780.233 729.433 779.888C727.952 779.584 726.486 779.224 725.036 778.808C724.851 778.755 724.784 778.635 724.838 778.449L725.229 776.872C725.283 776.686 725.402 776.62 725.588 776.673C727.001 777.078 728.448 777.433 729.929 777.737C731.883 778.217 733.325 778.59 734.254 778.857C734.44 778.91 734.506 779.03 734.453 779.215L734.061 780.792Z" fill="white"/>
<path d="M1155.64 1047.44L988.105 831.29L1130.75 775.099L1155.64 1047.44Z" fill="url(#paint12_linear)"/>
<path d="M1113.3 894.263C1113.37 894.443 1113.32 894.568 1113.14 894.639C1112.21 895.007 1111.51 895.302 1111.06 895.522C1111.23 895.867 1111.47 896.4 1111.75 897.12C1113.02 900.357 1113.12 903.291 1112.04 905.921C1110.95 908.55 1108.83 910.488 1105.66 911.735C1102.28 913.067 1099.1 913.446 1096.14 912.87C1093.15 912.258 1090.57 910.927 1088.39 908.877C1086.21 906.826 1084.54 904.325 1083.38 901.375C1082.06 898.03 1081.55 894.512 1081.84 890.823C1082.12 887.098 1083.32 883.672 1085.46 880.545C1087.63 877.405 1090.72 875.023 1094.74 873.4C1094.92 873.329 1095.04 873.383 1095.11 873.563L1095.71 875.074C1095.78 875.254 1095.73 875.379 1095.55 875.45C1091.93 876.918 1089.16 879.068 1087.24 881.901C1085.34 884.684 1084.26 887.73 1083.98 891.039C1083.74 894.333 1084.22 897.492 1085.41 900.514C1086.43 903.104 1087.88 905.316 1089.77 907.15C1091.68 908.933 1093.92 910.105 1096.51 910.664C1099.12 911.173 1101.9 910.847 1104.85 909.685C1107.41 908.679 1109.12 907.111 1109.98 904.983C1110.84 902.82 1110.74 900.406 1109.69 897.744C1109.45 897.133 1109.25 896.672 1109.08 896.362C1107.72 897.023 1106.34 897.63 1104.94 898.182C1104.76 898.253 1104.63 898.199 1104.56 898.019L1103.91 896.529C1103.84 896.349 1103.89 896.224 1104.07 896.153C1105.44 895.614 1106.81 895.015 1108.17 894.354C1110.01 893.545 1111.38 892.964 1112.28 892.61C1112.46 892.539 1112.58 892.593 1112.65 892.773L1113.3 894.263Z" fill="white"/>
<path d="M800.852 1023.11L779.943 832.052L944.231 895.117L800.852 1023.11Z" fill="url(#paint13_linear)"/>
<path d="M832.897 916.001C836.999 917.617 840.172 919.87 842.417 922.762C844.662 925.653 845.984 928.79 846.383 932.174C846.818 935.572 846.433 938.841 845.228 941.982C844.036 945.086 842.192 947.733 839.695 949.922C837.234 952.125 834.249 953.589 830.74 954.313C827.246 955.001 823.46 954.666 819.384 953.308C819.167 953.225 819.101 953.075 819.184 952.859C820.467 950.162 821.885 946.793 823.437 942.75C826.583 934.555 829.586 925.706 832.448 916.201C832.531 915.985 832.681 915.918 832.897 916.001ZM822.131 951.816C825.497 952.652 828.596 952.723 831.43 952.03C834.278 951.301 836.705 949.996 838.711 948.115C840.753 946.249 842.266 944.034 843.249 941.471C844.261 938.835 844.61 936.091 844.298 933.237C844.035 930.362 843.035 927.679 841.298 925.19C839.562 922.701 837.088 920.675 833.878 919.111C831.199 927.816 828.308 936.211 825.204 944.297C824.095 947.185 823.071 949.691 822.131 951.816Z" fill="white"/>
<path d="M1489.94 759.95L1515.85 1049.66L1207.59 829.771L1489.94 759.95Z" fill="url(#paint14_linear)"/>
<path d="M1435.5 850.99C1429.16 872.056 1425.02 884.77 1423.1 889.132C1423.01 889.303 1422.88 889.343 1422.71 889.252L1421.22 888.592C1421.05 888.501 1421.01 888.371 1421.1 888.2C1421.65 886.916 1422.29 885.22 1423.02 883.111C1421.85 882.666 1420.4 881.981 1418.66 881.055C1416.27 879.785 1414.01 878.431 1411.88 876.994C1410.36 878.201 1408.75 879.423 1407.04 880.661C1406.97 880.711 1406.89 880.735 1406.81 880.733C1406.72 880.73 1406.65 880.694 1406.6 880.624L1405.7 879.226C1405.62 879.051 1405.64 878.93 1405.76 878.864C1407.35 877.693 1408.75 876.621 1409.97 875.649L1409.41 875.219L1410.75 873.437L1411.75 874.162C1415.84 870.736 1419.78 866.917 1423.55 862.704C1427.34 858.457 1430.66 854.242 1433.5 850.058L1435.5 850.99ZM1413.66 875.507C1415.92 877.017 1417.85 878.198 1419.46 879.052C1420.93 879.832 1422.36 880.482 1423.74 881.001C1425.65 875.358 1428.2 867.275 1431.38 856.751C1426.3 863.422 1420.39 869.674 1413.66 875.507Z" fill="white"/>
<circle cx="960" cy="541" r="30" fill="url(#paint15_linear)"/>
<path d="M960 123L1137.54 426.75H782.465L960 123Z" fill="url(#paint16_linear)"/>
<path d="M966.835 282.386C967.029 282.386 967.125 282.483 967.125 282.676V284.3C967.125 284.493 967.029 284.59 966.835 284.59C963.355 284.667 960.339 285.402 957.787 286.794C955.274 288.186 953.321 290.158 951.929 292.71C950.576 295.223 949.899 298.143 949.899 301.468C949.899 302.435 949.957 303.44 950.073 304.484C950.421 307.539 951.427 310.226 953.089 312.546C954.791 314.827 956.995 316.606 959.701 317.882C962.408 319.158 965.463 319.796 968.865 319.796C969.175 319.796 969.329 319.893 969.329 320.086V321.71C969.329 321.903 969.194 322 968.923 322C965.134 322 961.712 321.285 958.657 319.854C955.641 318.423 953.186 316.413 951.291 313.822C949.397 311.193 948.256 308.157 947.869 304.716C947.753 303.595 947.695 302.531 947.695 301.526C947.695 297.775 948.469 294.469 950.015 291.608C951.601 288.747 953.824 286.523 956.685 284.938C959.585 283.314 962.969 282.463 966.835 282.386Z" fill="white"/>
<path d="M588.347 551.199L701.236 262.966L878.506 443.357L588.347 551.199Z" fill="url(#paint17_linear)"/>
<path d="M735.382 420.093C735.434 420.204 735.425 420.302 735.357 420.388C735.285 420.435 735.21 420.463 735.133 420.472C730.468 421.198 726.887 421.703 724.39 421.988C721.931 422.268 718.29 422.585 713.466 422.94C713.095 417.301 712.702 412.481 712.285 408.481L710.831 408.53L710.64 406.334L712.093 406.285L711.673 402.597C710.99 396.603 710.151 390.258 709.154 383.561C710.379 383.383 712.202 383.156 714.622 382.88C718.694 382.416 722.353 382.077 725.598 381.863C725.713 381.85 725.796 381.899 725.848 382.01C725.933 382.078 725.961 382.152 725.932 382.234L725.706 383.835C725.714 383.912 725.682 383.974 725.61 384.021C725.576 384.064 725.52 384.09 725.444 384.099C721.738 384.365 718.944 384.606 717.061 384.82C715.87 384.956 714.05 385.202 711.6 385.559C712.452 390.988 713.154 396.123 713.705 400.964C713.968 403.269 714.146 405 714.239 406.157C716.096 406.062 717.947 405.91 719.791 405.7L721.635 405.489C721.75 405.476 721.853 405.523 721.942 405.63C722.028 405.698 722.056 405.772 722.026 405.853L721.851 407.391C721.869 407.545 721.782 407.633 721.589 407.654L719.688 407.871C718.535 408.002 716.802 408.161 714.488 408.347C714.93 413.589 715.236 417.641 715.406 420.501C718.92 420.256 722.175 419.963 725.171 419.622C728.206 419.276 731.348 418.84 734.596 418.315C734.788 418.293 734.893 418.359 734.91 418.512L735.382 420.093Z" fill="white"/>
<path d="M1359.12 401.526L1131.98 526.218L1184.95 209.677L1359.12 401.526Z" fill="url(#paint18_linear)"/>
<path d="M1240.5 378.134C1240.49 378.327 1240.39 378.419 1240.2 378.409C1239.19 378.356 1238.44 378.336 1237.94 378.348C1237.95 378.737 1237.94 379.317 1237.9 380.089C1237.72 383.564 1236.59 386.274 1234.51 388.217C1232.44 390.16 1229.7 391.043 1226.3 390.865C1222.67 390.674 1219.63 389.702 1217.16 387.946C1214.7 386.152 1212.9 383.871 1211.77 381.101C1210.64 378.331 1210.16 375.363 1210.32 372.197C1210.51 368.606 1211.5 365.192 1213.3 361.956C1215.1 358.682 1217.61 356.065 1220.85 354.105C1224.13 352.147 1227.93 351.262 1232.26 351.45C1232.45 351.461 1232.54 351.562 1232.53 351.755L1232.45 353.377C1232.44 353.57 1232.34 353.662 1232.14 353.651C1228.24 353.486 1224.83 354.294 1221.91 356.077C1219.03 357.824 1216.78 360.145 1215.16 363.041C1213.57 365.94 1212.7 369.011 1212.53 372.254C1212.38 375.034 1212.79 377.65 1213.74 380.101C1214.74 382.515 1216.3 384.513 1218.42 386.096C1220.59 387.642 1223.25 388.498 1226.42 388.664C1229.16 388.807 1231.37 388.091 1233.04 386.513C1234.71 384.897 1235.62 382.66 1235.77 379.803C1235.8 379.147 1235.81 378.644 1235.79 378.294C1234.28 378.331 1232.77 378.31 1231.26 378.231C1231.07 378.221 1230.98 378.119 1230.99 377.926L1231.02 376.301C1231.03 376.108 1231.13 376.017 1231.32 376.027C1232.79 376.104 1234.28 376.124 1235.79 376.087C1237.8 376.115 1239.29 376.154 1240.26 376.205C1240.45 376.215 1240.54 376.317 1240.53 376.51L1240.5 378.134Z" fill="white"/>
<path d="M635.97 136.183L703.482 340.316L496.904 300.161L635.97 136.183Z" fill="url(#paint19_linear)"/>
<path d="M625.35 258.441C625.325 258.633 625.216 258.716 625.025 258.691C624.028 258.56 623.278 258.481 622.775 258.453C622.762 258.842 622.706 259.419 622.605 260.186C622.151 263.636 620.812 266.248 618.59 268.023C616.367 269.797 613.569 270.462 610.195 270.018C606.592 269.544 603.631 268.335 601.313 266.392C599 264.41 597.387 261.994 596.475 259.144C595.564 256.294 595.315 253.298 595.728 250.154C596.198 246.589 597.455 243.264 599.499 240.179C601.548 237.056 604.264 234.644 607.647 232.944C611.068 231.25 614.928 230.666 619.226 231.193C619.418 231.218 619.501 231.327 619.476 231.518L619.264 233.128C619.239 233.32 619.13 233.403 618.939 233.378C615.062 232.907 611.598 233.445 608.547 234.993C605.539 236.509 603.113 238.646 601.268 241.406C599.461 244.171 598.345 247.164 597.921 250.384C597.558 253.144 597.756 255.784 598.517 258.302C599.321 260.787 600.719 262.901 602.713 264.646C604.749 266.357 607.34 267.419 610.483 267.833C613.205 268.191 615.46 267.65 617.249 266.208C619.043 264.729 620.127 262.57 620.5 259.733C620.586 259.082 620.632 258.581 620.639 258.231C619.129 258.149 617.626 258.009 616.131 257.813C615.94 257.787 615.856 257.679 615.882 257.487L616.036 255.87C616.061 255.678 616.17 255.595 616.362 255.62C617.818 255.812 619.302 255.949 620.812 256.03C622.816 256.216 624.297 256.372 625.255 256.498C625.447 256.524 625.53 256.632 625.505 256.824L625.35 258.441Z" fill="white"/>
<path d="M774.426 48.6221L996.041 122.979L756.28 281.673L774.426 48.6221Z" fill="url(#paint20_linear)"/>
<path d="M838.063 138.639C842.229 139.838 845.269 141.503 847.184 143.632C849.136 145.771 849.791 148.175 849.15 150.845C848.879 151.973 848.36 153.14 847.593 154.348C845.855 156.953 843.241 158.731 839.751 159.683C836.262 160.634 832.412 160.605 828.201 159.594C827.261 159.368 826.551 159.178 826.071 159.023C825.959 158.996 825.878 158.917 825.83 158.786L825.871 158.617C827.443 154.222 828.779 149.732 829.88 145.145C830.864 141.047 831.66 136.903 832.268 132.715C832.923 128.498 833.355 124.545 833.564 120.858L833.577 120.801C833.632 120.576 833.828 120.503 834.166 120.585C835.087 120.726 835.772 120.851 836.224 120.959C839.307 121.699 841.429 123.044 842.592 124.993C843.763 126.905 844.069 129.026 843.51 131.357C843.158 132.824 842.486 134.213 841.495 135.526C840.504 136.839 839.36 137.877 838.063 138.639ZM833.721 137.597C835.456 137.655 837.031 137.059 838.445 135.808C839.905 134.528 840.852 132.986 841.285 131.181C841.709 129.414 841.464 127.785 840.55 126.293C839.673 124.81 838.036 123.761 835.639 123.145C835.326 127.762 834.687 132.58 833.721 137.597ZM845.726 153.184C846.299 152.288 846.68 151.445 846.869 150.655C847.411 148.399 846.689 146.357 844.702 144.528C842.753 142.708 839.748 141.31 835.688 140.336C834.672 140.092 833.878 139.921 833.305 139.823C832.767 142.398 832.339 144.343 832.024 145.659C830.958 150.096 829.814 154.036 828.589 157.48C832.387 158.392 835.829 158.463 838.917 157.693C842.004 156.923 844.274 155.42 845.726 153.184Z" fill="white"/>
<path d="M1154.6 292.126L1027.16 62.1465L1386.74 168.658L1154.6 292.126Z" fill="url(#paint21_linear)"/>
<path d="M1179.27 147.328C1183.68 147.367 1187.45 148.333 1190.58 150.228C1193.71 152.123 1196.07 154.578 1197.66 157.594C1199.28 160.61 1200.09 163.8 1200.09 167.164C1200.09 170.489 1199.32 173.621 1197.77 176.56C1196.26 179.499 1194 181.935 1190.99 183.868C1187.97 185.763 1184.32 186.807 1180.02 187C1179.79 187 1179.68 186.884 1179.68 186.652C1179.91 183.675 1180.02 180.021 1180.02 175.69C1180.02 166.913 1179.66 157.575 1178.92 147.676C1178.92 147.444 1179.04 147.328 1179.27 147.328ZM1182.05 184.622C1185.5 184.197 1188.41 183.153 1190.81 181.49C1193.21 179.789 1195.01 177.701 1196.21 175.226C1197.44 172.751 1198.06 170.141 1198.06 167.396C1198.06 164.573 1197.4 161.886 1196.09 159.334C1194.81 156.743 1192.92 154.597 1190.41 152.896C1187.89 151.195 1184.86 150.189 1181.3 149.88C1181.92 158.967 1182.23 167.841 1182.23 176.502C1182.23 179.595 1182.17 182.302 1182.05 184.622Z" fill="white"/>
</g>
<defs>
<linearGradient id="paint0_linear" x1="1755.49" y1="485.991" x2="1340.51" y2="515.009" gradientUnits="userSpaceOnUse">
<stop stop-color="#C4C4C4" stop-opacity="0"/>
<stop offset="0.0001" stop-color="#716D6E" stop-opacity="0.53"/>
<stop offset="1" stop-color="#61DC42"/>
</linearGradient>
<linearGradient id="paint1_linear" x1="191.875" y1="550.514" x2="605.96" y2="510.642" gradientUnits="userSpaceOnUse">
<stop stop-color="#C4C4C4" stop-opacity="0"/>
<stop offset="0.0001" stop-color="#716D6E" stop-opacity="0.53"/>
<stop offset="1" stop-color="#0218E3"/>
</linearGradient>
<linearGradient id="paint2_linear" x1="110.502" y1="729.344" x2="550.467" y2="1020.55" gradientUnits="userSpaceOnUse">
<stop stop-color="#C4C4C4" stop-opacity="0"/>
<stop offset="0.0001" stop-color="#716D6E" stop-opacity="0.53"/>
<stop offset="1" stop-color="#BB0393"/>
</linearGradient>
<linearGradient id="paint3_linear" x1="280.503" y1="602.969" x2="98.4001" y2="599.79" gradientUnits="userSpaceOnUse">
<stop stop-color="#C4C4C4" stop-opacity="0"/>
<stop offset="0.0001" stop-color="#716D6E" stop-opacity="0.53"/>
<stop offset="1" stop-color="#BB0393"/>
</linearGradient>
<linearGradient id="paint4_linear" x1="260.043" y1="766.941" x2="565.119" y2="679.462" gradientUnits="userSpaceOnUse">
<stop stop-color="#C4C4C4" stop-opacity="0"/>
<stop offset="0.0001" stop-color="#716D6E" stop-opacity="0.53"/>
<stop offset="1" stop-color="#0218E3"/>
</linearGradient>
<linearGradient id="paint5_linear" x1="450.573" y1="410.899" x2="227.231" y2="95.6264" gradientUnits="userSpaceOnUse">
<stop stop-color="#C4C4C4" stop-opacity="0"/>
<stop offset="0.0001" stop-color="#716D6E" stop-opacity="0.53"/>
<stop offset="1" stop-color="#0218E3"/>
</linearGradient>
<linearGradient id="paint6_linear" x1="40.9815" y1="183.238" x2="307.386" y2="262.151" gradientUnits="userSpaceOnUse">
<stop stop-color="#C4C4C4" stop-opacity="0"/>
<stop offset="0.0001" stop-color="#716D6E" stop-opacity="0.53"/>
<stop offset="1" stop-color="#BB0393"/>
</linearGradient>
<linearGradient id="paint7_linear" x1="1826.88" y1="207.581" x2="1436.42" y2="349.694" gradientUnits="userSpaceOnUse">
<stop stop-color="#C4C4C4" stop-opacity="0"/>
<stop offset="0.0001" stop-color="#716D6E" stop-opacity="0.53"/>
<stop offset="1" stop-color="#61DC42"/>
</linearGradient>
<linearGradient id="paint8_linear" x1="1770.86" y1="827.385" x2="1544.93" y2="560.086" gradientUnits="userSpaceOnUse">
<stop stop-color="#C4C4C4" stop-opacity="0"/>
<stop offset="0.0001" stop-color="#716D6E" stop-opacity="0.53"/>
<stop offset="1" stop-color="#61DC42"/>
</linearGradient>
<linearGradient id="paint9_linear" x1="960" y1="945" x2="960" y2="540" gradientUnits="userSpaceOnUse">
<stop stop-color="#C4C4C4" stop-opacity="0"/>
<stop offset="0.0001" stop-color="#716D6E" stop-opacity="0.53"/>
<stop offset="1" stop-color="#F8194E"/>
</linearGradient>
<linearGradient id="paint10_linear" x1="1321.18" y1="821.579" x2="1177.82" y2="573.256" gradientUnits="userSpaceOnUse">
<stop stop-color="#C4C4C4" stop-opacity="0"/>
<stop offset="0.0001" stop-color="#716D6E" stop-opacity="0.53"/>
<stop offset="1" stop-color="#EE0039"/>
</linearGradient>
<linearGradient id="paint11_linear" x1="677.17" y1="917.705" x2="768.678" y2="598.576" gradientUnits="userSpaceOnUse">
<stop stop-color="#C4C4C4" stop-opacity="0"/>
<stop offset="0.0001" stop-color="#716D6E" stop-opacity="0.53"/>
<stop offset="1" stop-color="#EE0039"/>
</linearGradient>
<linearGradient id="paint12_linear" x1="1155.64" y1="1047.44" x2="1027.36" y2="721.778" gradientUnits="userSpaceOnUse">
<stop stop-color="#C4C4C4" stop-opacity="0"/>
<stop offset="0.0001" stop-color="#716D6E" stop-opacity="0.53"/>
<stop offset="1" stop-color="#FF640D"/>
</linearGradient>
<linearGradient id="paint13_linear" x1="800.852" y1="1023.11" x2="882.499" y2="810.41" gradientUnits="userSpaceOnUse">
<stop stop-color="#C4C4C4" stop-opacity="0"/>
<stop offset="0.0001" stop-color="#716D6E" stop-opacity="0.53"/>
<stop offset="1" stop-color="#FF640D"/>
</linearGradient>
<linearGradient id="paint14_linear" x1="1489.94" y1="759.95" x2="1318.98" y2="999.634" gradientUnits="userSpaceOnUse">
<stop stop-color="#C4C4C4" stop-opacity="0"/>
<stop offset="0.0001" stop-color="#716D6E" stop-opacity="0.53"/>
<stop offset="1" stop-color="#FF640D"/>
</linearGradient>
<linearGradient id="paint15_linear" x1="1000.5" y1="541" x2="930" y2="541" gradientUnits="userSpaceOnUse">
<stop stop-color="#2636BF"/>
<stop offset="1" stop-color="#FF1111"/>
</linearGradient>
<linearGradient id="paint16_linear" x1="960" y1="123" x2="960" y2="528" gradientUnits="userSpaceOnUse">
<stop stop-color="#C4C4C4" stop-opacity="0"/>
<stop stop-color="#C4C4C4"/>
<stop offset="0.0001" stop-color="#617570" stop-opacity="0.78"/>
<stop offset="1" stop-color="#06D6A0"/>
</linearGradient>
<linearGradient id="paint17_linear" x1="588.347" y1="551.199" x2="857.046" y2="287.149" gradientUnits="userSpaceOnUse">
<stop stop-color="#C4C4C4" stop-opacity="0"/>
<stop stop-color="#C4C4C4"/>
<stop offset="0.0001" stop-color="#617570" stop-opacity="0.78"/>
<stop offset="1" stop-color="#06D6A0"/>
</linearGradient>
<linearGradient id="paint18_linear" x1="1359.12" y1="401.526" x2="1091.58" y2="356.755" gradientUnits="userSpaceOnUse">
<stop stop-color="#C4C4C4" stop-opacity="0"/>
<stop stop-color="#C4C4C4"/>
<stop offset="0.0001" stop-color="#617570" stop-opacity="0.78"/>
<stop offset="1" stop-color="#06D6A0"/>
</linearGradient>
<linearGradient id="paint19_linear" x1="635.97" y1="136.183" x2="588.268" y2="381.59" gradientUnits="userSpaceOnUse">
<stop stop-color="white" stop-opacity="0.2"/>
<stop offset="1" stop-color="#DC9A00"/>
</linearGradient>
<linearGradient id="paint20_linear" x1="774.426" y1="48.6221" x2="910.072" y2="253.561" gradientUnits="userSpaceOnUse">
<stop stop-color="white" stop-opacity="0.2"/>
<stop offset="1" stop-color="#DC9A00"/>
</linearGradient>
<linearGradient id="paint21_linear" x1="1154.6" y1="292.126" x2="1224.4" y2="56.4943" gradientUnits="userSpaceOnUse">
<stop stop-color="white" stop-opacity="0.2"/>
<stop offset="1" stop-color="#DC9A00"/>
</linearGradient>
<clipPath id="clip0">
<rect width="1920" height="1080" fill="white"/>
</clipPath>
</defs>
</svg>
